<svg xmlns="http://www.w3.org/2000/svg" viewBox="0 0 64 64" fill="none">
  <defs>
    <linearGradient id="gradient" x1="0%" y1="0%" x2="100%" y2="100%">
      <stop offset="0%" style="stop-color:#3B82F6;stop-opacity:1" />
      <stop offset="100%" style="stop-color:#8B5CF6;stop-opacity:1" />
    </linearGradient>
  </defs>
  
  <!-- Background circle -->
  <circle cx="32" cy="32" r="30" fill="url(#gradient)" opacity="0.1"/>
  
  <!-- Chart bars -->
  <rect x="12" y="38" width="6" height="14" rx="2" fill="url(#gradient)"/>
  <rect x="22" y="32" width="6" height="20" rx="2" fill="url(#gradient)"/>
  <rect x="32" y="24" width="6" height="28" rx="2" fill="url(#gradient)"/>
  <rect x="42" y="18" width="6" height="34" rx="2" fill="url(#gradient)"/>
  
  <!-- Dollar sign overlay -->
  <path d="M32 16 L32 48 M28 20 C28 18 29 17 30 17 C31 17 32 18 32 20 C32 22 31 23 30 23 C29 23 28 24 28 26 C28 28 29 29 30 29 C31 29 32 30 32 32 M28 32 L36 32" 
        stroke="url(#gradient)" 
        stroke-width="2.5" 
        stroke-linecap="round" 
        fill="none"/>
</svg>
